<svg width="459" height="105" viewBox="0 0 459 105" fill="none" xmlns="http://www.w3.org/2000/svg">
<path d="M27.3367 11.0484L15.5458 4.96623C0.291737 -2.90233 -18.3867 4.68024 -23.8397 20.9549L-39.6377 68.1043C-45.7153 86.2431 -32.2182 105 -13.0883 105H499.217C520.834 105 534.298 81.5433 523.394 62.877L501.656 25.6635C498.606 20.4419 493.947 16.3481 488.377 13.9944L462.407 3.02108C454.236 -0.431272 444.913 0.191883 437.275 4.70089L429.225 9.45279C420.657 14.5109 410.047 14.6418 401.357 9.79656L393.188 5.24251C384.607 0.45859 374.147 0.521715 365.625 5.40885L357.971 9.79762C349.5 14.6557 339.109 14.7488 330.551 10.0432L320.695 4.62364C312.622 0.184288 302.881 0.00069809 294.646 4.13267L281.013 10.9733C272.727 15.1312 262.919 14.9177 254.821 10.403L244.761 4.79406C236.619 0.254972 226.753 0.0651293 218.442 4.28768L205.404 10.9127C197.146 15.109 187.346 14.9491 179.229 10.4856L168.568 4.62364C160.495 0.184288 150.755 0.00069809 142.52 4.13267L128.887 10.9733C120.6 15.1312 110.792 14.9177 102.695 10.403L92.634 4.79406C84.4924 0.254972 74.6258 0.0651293 66.3156 4.28768L52.8567 11.1264C44.832 15.2039 35.3363 15.1748 27.3367 11.0484Z" fill="#BDABA2" stroke="#BDABA2"/>
</svg>
